<?xml version="1.0" encoding="UTF-8" standalone="no"?>
<!DOCTYPE svg PUBLIC "-//W3C//DTD SVG 1.1//EN"
 "http://www.w3.org/Graphics/SVG/1.1/DTD/svg11.dtd">
<!-- Generated by graphviz version 2.47.3 (20210619.1520)
 -->
<!-- Title: Tree Pages: 1 -->
<svg width="426pt" height="433pt"
 viewBox="0.00 0.00 426.00 433.00" xmlns="http://www.w3.org/2000/svg" xmlns:xlink="http://www.w3.org/1999/xlink">
<g id="graph0" class="graph" transform="scale(1 1) rotate(0) translate(4 429)">
<title>Tree</title>
<polygon fill="white" stroke="transparent" points="-4,4 -4,-429 422,-429 422,4 -4,4"/>
<!-- 0 -->
<g id="node1" class="node">
<title>0</title>
<path fill="#87c4ef" stroke="black" d="M248,-425C248,-425 102,-425 102,-425 96,-425 90,-419 90,-413 90,-413 90,-354 90,-354 90,-348 96,-342 102,-342 102,-342 248,-342 248,-342 254,-342 260,-348 260,-354 260,-354 260,-413 260,-413 260,-419 254,-425 248,-425"/>
<text text-anchor="start" x="140" y="-409.8" font-family="Helvetica,sans-Serif" font-size="14.00">safety ≤ 1.5</text>
<text text-anchor="start" x="127.5" y="-394.8" font-family="Helvetica,sans-Serif" font-size="14.00">entropy = 1.217</text>
<text text-anchor="start" x="126.5" y="-379.8" font-family="Helvetica,sans-Serif" font-size="14.00">samples = 1209</text>
<text text-anchor="start" x="98" y="-364.8" font-family="Helvetica,sans-Serif" font-size="14.00">value = [274, 48, 840, 47]</text>
<text text-anchor="start" x="133.5" y="-349.8" font-family="Helvetica,sans-Serif" font-size="14.00">class = unacc</text>
</g>
<!-- 1 -->
<g id="node2" class="node">
<title>1</title>
<path fill="#399de5" stroke="black" d="M147,-298.5C147,-298.5 31,-298.5 31,-298.5 25,-298.5 19,-292.5 19,-286.5 19,-286.5 19,-242.5 19,-242.5 19,-236.5 25,-230.5 31,-230.5 31,-230.5 147,-230.5 147,-230.5 153,-230.5 159,-236.5 159,-242.5 159,-242.5 159,-286.5 159,-286.5 159,-292.5 153,-298.5 147,-298.5"/>
<text text-anchor="start" x="49" y="-283.3" font-family="Helvetica,sans-Serif" font-size="14.00">entropy = 0.0</text>
<text text-anchor="start" x="44" y="-268.3" font-family="Helvetica,sans-Serif" font-size="14.00">samples = 400</text>
<text text-anchor="start" x="27" y="-253.3" font-family="Helvetica,sans-Serif" font-size="14.00">value = [0, 0, 400, 0]</text>
<text text-anchor="start" x="47.5" y="-238.3" font-family="Helvetica,sans-Serif" font-size="14.00">class = unacc</text>
</g>
<!-- 0&#45;&gt;1 -->
<g id="edge1" class="edge">
<title>0&#45;&gt;1</title>
<path fill="none" stroke="black" d="M145.16,-341.91C136.81,-330.54 127.72,-318.18 119.34,-306.77"/>
<polygon fill="black" stroke="black" points="122.12,-304.65 113.38,-298.67 116.48,-308.8 122.12,-304.65"/>
<text text-anchor="middle" x="109.61" y="-319.68" font-family="Helvetica,sans-Serif" font-size="14.00">True</text>
</g>
<!-- 2 -->
<g id="node3" class="node">
<title>2</title>
<path fill="#c2e1f7" stroke="black" d="M335,-306C335,-306 189,-306 189,-306 183,-306 177,-300 177,-294 177,-294 177,-235 177,-235 177,-229 183,-223 189,-223 189,-223 335,-223 335,-223 341,-223 347,-229 347,-235 347,-235 347,-294 347,-294 347,-300 341,-306 335,-306"/>
<text text-anchor="start" x="221" y="-290.8" font-family="Helvetica,sans-Serif" font-size="14.00">persons ≤ 2.5</text>
<text text-anchor="start" x="214.5" y="-275.8" font-family="Helvetica,sans-Serif" font-size="14.00">entropy = 1.487</text>
<text text-anchor="start" x="217" y="-260.8" font-family="Helvetica,sans-Serif" font-size="14.00">samples = 809</text>
<text text-anchor="start" x="185" y="-245.8" font-family="Helvetica,sans-Serif" font-size="14.00">value = [274, 48, 440, 47]</text>
<text text-anchor="start" x="220.5" y="-230.8" font-family="Helvetica,sans-Serif" font-size="14.00">class = unacc</text>
</g>
<!-- 0&#45;&gt;2 -->
<g id="edge2" class="edge">
<title>0&#45;&gt;2</title>
<path fill="none" stroke="black" d="M205.18,-341.91C211.86,-332.92 219.01,-323.32 225.9,-314.05"/>
<polygon fill="black" stroke="black" points="228.71,-316.13 231.87,-306.02 223.09,-311.96 228.71,-316.13"/>
<text text-anchor="middle" x="235.51" y="-327.05" font-family="Helvetica,sans-Serif" font-size="14.00">False</text>
</g>
<!-- 3 -->
<g id="node4" class="node">
<title>3</title>
<path fill="#f8decb" stroke="black" d="M248,-187C248,-187 102,-187 102,-187 96,-187 90,-181 90,-175 90,-175 90,-116 90,-116 90,-110 96,-104 102,-104 102,-104 248,-104 248,-104 254,-104 260,-110 260,-116 260,-116 260,-175 260,-175 260,-181 254,-187 248,-187"/>
<text text-anchor="start" x="138" y="-171.8" font-family="Helvetica,sans-Serif" font-size="14.00">buying ≤ 3.5</text>
<text text-anchor="start" x="127.5" y="-156.8" font-family="Helvetica,sans-Serif" font-size="14.00">entropy = 1.639</text>
<text text-anchor="start" x="130" y="-141.8" font-family="Helvetica,sans-Serif" font-size="14.00">samples = 546</text>
<text text-anchor="start" x="98" y="-126.8" font-family="Helvetica,sans-Serif" font-size="14.00">value = [274, 48, 177, 47]</text>
<text text-anchor="start" x="133.5" y="-111.8" font-family="Helvetica,sans-Serif" font-size="14.00">class = unacc</text>
</g>
<!-- 2&#45;&gt;3 -->
<g id="edge3" class="edge">
<title>2&#45;&gt;3</title>
<path fill="none" stroke="black" d="M231.82,-222.91C225.14,-213.92 217.99,-204.32 211.1,-195.05"/>
<polygon fill="black" stroke="black" points="213.91,-192.96 205.13,-187.02 208.29,-197.13 213.91,-192.96"/>
</g>
<!-- 6 -->
<g id="node7" class="node">
<title>6</title>
<path fill="#399de5" stroke="black" d="M406,-179.5C406,-179.5 290,-179.5 290,-179.5 284,-179.5 278,-173.5 278,-167.5 278,-167.5 278,-123.5 278,-123.5 278,-117.5 284,-111.5 290,-111.5 290,-111.5 406,-111.5 406,-111.5 412,-111.5 418,-117.5 418,-123.5 418,-123.5 418,-167.5 418,-167.5 418,-173.5 412,-179.5 406,-179.5"/>
<text text-anchor="start" x="308" y="-164.3" font-family="Helvetica,sans-Serif" font-size="14.00">entropy = 0.0</text>
<text text-anchor="start" x="303" y="-149.3" font-family="Helvetica,sans-Serif" font-size="14.00">samples = 263</text>
<text text-anchor="start" x="286" y="-134.3" font-family="Helvetica,sans-Serif" font-size="14.00">value = [0, 0, 263, 0]</text>
<text text-anchor="start" x="306.5" y="-119.3" font-family="Helvetica,sans-Serif" font-size="14.00">class = unacc</text>
</g>
<!-- 2&#45;&gt;6 -->
<g id="edge6" class="edge">
<title>2&#45;&gt;6</title>
<path fill="none" stroke="black" d="M291.84,-222.91C300.19,-211.54 309.28,-199.18 317.66,-187.77"/>
<polygon fill="black" stroke="black" points="320.52,-189.8 323.62,-179.67 314.88,-185.65 320.52,-189.8"/>
</g>
<!-- 4 -->
<g id="node5" class="node">
<title>4</title>
<path fill="#fbeadd" stroke="black" d="M158,-68C158,-68 12,-68 12,-68 6,-68 0,-62 0,-56 0,-56 0,-12 0,-12 0,-6 6,0 12,0 12,0 158,0 158,0 164,0 170,-6 170,-12 170,-12 170,-56 170,-56 170,-62 164,-68 158,-68"/>
<text text-anchor="start" x="37.5" y="-52.8" font-family="Helvetica,sans-Serif" font-size="14.00">entropy = 1.432</text>
<text text-anchor="start" x="40" y="-37.8" font-family="Helvetica,sans-Serif" font-size="14.00">samples = 406</text>
<text text-anchor="start" x="8" y="-22.8" font-family="Helvetica,sans-Serif" font-size="14.00">value = [205, 19, 164, 18]</text>
<text text-anchor="start" x="43.5" y="-7.8" font-family="Helvetica,sans-Serif" font-size="14.00">class = unacc</text>
</g>
<!-- 3&#45;&gt;4 -->
<g id="edge4" class="edge">
<title>3&#45;&gt;4</title>
<path fill="none" stroke="black" d="M141.49,-103.73C134.07,-94.7 126.2,-85.12 118.77,-76.08"/>
<polygon fill="black" stroke="black" points="121.42,-73.8 112.37,-68.3 116.02,-78.25 121.42,-73.8"/>
</g>
<!-- 5 -->
<g id="node6" class="node">
<title>5</title>
<path fill="#f6d2b8" stroke="black" d="M331.5,-68C331.5,-68 200.5,-68 200.5,-68 194.5,-68 188.5,-62 188.5,-56 188.5,-56 188.5,-12 188.5,-12 188.5,-6 194.5,0 200.5,0 200.5,0 331.5,0 331.5,0 337.5,0 343.5,-6 343.5,-12 343.5,-12 343.5,-56 343.5,-56 343.5,-62 337.5,-68 331.5,-68"/>
<text text-anchor="start" x="218.5" y="-52.8" font-family="Helvetica,sans-Serif" font-size="14.00">entropy = 1.762</text>
<text text-anchor="start" x="221" y="-37.8" font-family="Helvetica,sans-Serif" font-size="14.00">samples = 140</text>
<text text-anchor="start" x="196.5" y="-22.8" font-family="Helvetica,sans-Serif" font-size="14.00">value = [69, 29, 13, 29]</text>
<text text-anchor="start" x="224.5" y="-7.8" font-family="Helvetica,sans-Serif" font-size="14.00">class = unacc</text>
</g>
<!-- 3&#45;&gt;5 -->
<g id="edge5" class="edge">
<title>3&#45;&gt;5</title>
<path fill="none" stroke="black" d="M208.89,-103.73C216.39,-94.7 224.34,-85.12 231.86,-76.08"/>
<polygon fill="black" stroke="black" points="234.63,-78.23 238.33,-68.3 229.24,-73.75 234.63,-78.23"/>
</g>
</g>
</svg>
